<?xml version="1.0" standalone="no"?>
<!DOCTYPE svg PUBLIC "-//W3C//DTD SVG 1.1//EN" "http://www.w3.org/Graphics/SVG/1.1/DTD/svg11.dtd" >
<svg xmlns="http://www.w3.org/2000/svg">
<metadata>Generated by IcoMoon</metadata>
<defs>
<font id="icomoon" horiz-adv-x="1024">
<font-face units-per-em="1024" ascent="960" descent="-64" />
<missing-glyph horiz-adv-x="1024" />
<glyph unicode="&#x20;" horiz-adv-x="512" d="" />
<glyph unicode="&#xe900;" glyph-name="github" d="M512 947.328c-282.88 0-512-229.248-512-512 0-226.261 146.688-418.133 350.080-485.76 25.6-4.821 34.987 11.008 34.987 24.619 0 12.16-0.427 44.373-0.64 87.040-142.421-30.891-172.459 68.693-172.459 68.693-23.296 59.093-56.96 74.88-56.96 74.88-46.379 31.744 3.584 31.104 3.584 31.104 51.413-3.584 78.421-52.736 78.421-52.736 45.653-78.293 119.851-55.68 149.12-42.581 4.608 33.109 17.792 55.68 32.427 68.48-113.707 12.8-233.216 56.832-233.216 253.013 0 55.893 19.84 101.547 52.693 137.387-5.76 12.928-23.040 64.981 4.48 135.509 0 0 42.88 13.739 140.8-52.48 40.96 11.392 84.48 17.024 128 17.28 43.52-0.256 87.040-5.888 128-17.28 97.28 66.219 140.16 52.48 140.16 52.48 27.52-70.528 10.24-122.581 5.12-135.509 32.64-35.84 52.48-81.493 52.48-137.387 0-196.693-119.68-240-233.6-252.587 17.92-15.36 34.56-46.763 34.56-94.72 0-68.523-0.64-123.563-0.64-140.203 0-13.44 8.96-29.44 35.2-24.32 204.843 67.157 351.403 259.157 351.403 485.077 0 282.752-229.248 512-512 512z" />
<glyph unicode="&#xe903;" glyph-name="gsap" d="M574.848-61.781c-13.269 2.261-27.264 8.533-34.987 15.573-5.21 5.369-8.428 12.696-8.448 20.775v0.004c0 7.68 3.84 18.773 10.325 29.696 3.466 5.692 6.489 12.258 8.731 19.176l0.186 0.664c1.28 4.821 4.096 12.8 6.272 17.792l3.883 9.045 1.024 61.269c0.555 33.707 1.579 65.109 2.261 69.888 2.482 15.505 6.239 29.315 11.28 42.49l-0.486-1.445 3.584 8.917-5.248 3.115c-4.907 2.944-8.96 7.168-24.747 25.941-19.499 23.040-45.099 35.669-81.408 40.107-9.523 0.978-21.936 1.849-34.436 2.384l-1.404 0.048c-53.419 2.475-83.883 13.611-111.36 40.619-20.48 20.224-31.189 43.733-35.541 78.336-5.888 46.848-12.373 70.955-24.32 90.453-3.117 5.065-6.454 9.46-10.169 13.502l0.057-0.062-4.864 4.821-10.667-6.827c-5.931-3.755-14.037-8.661-18.048-10.88-14.789-8.19-27.281-16.254-39.201-25.047l0.972 0.684c-29.696-21.632-62.251-48.725-80.085-66.645-8.021-8.021-12.245-11.392-13.952-11.179-12.288 1.835-2.816 54.613 16.896 94.293 25.387 51.072 67.968 98.261 117.419 130.176 40.533 26.155 106.027 62.123 136.363 74.795 53.76 22.485 123.392 46.848 171.093 59.861 10.069 2.731 16.256 5.205 20.352 8.107 9.387 6.528 18.517 9.6 29.056 9.813 8.789 0.128 9.643 0.427 18.133 5.973 10.027 6.485 12.885 6.912 22.955 3.413l6.571-2.347 7.979 5.419 8.021 5.419 11.52-0.256c8.747-0.171 12.757 0.299 16.512 1.963 4.864 2.133 5.035 2.389 6.4 10.453 3.072 17.323 3.413 26.027 1.579 36.437-2.475 13.824-2.688 67.584-0.341 78.037 2.517 11.349 4.139 13.611 12.587 17.792 12.672 6.272 22.144 8.021 44.032 8.021 26.624 0 40.107-3.584 50.091-13.227 9.045-8.789 10.581-29.013 5.845-76.8-2.731-27.392-3.072-35.115-2.347-53.077 0.427-11.563 1.152-22.357 1.579-23.936 0.725-2.773 1.365-2.944 11.051-3.157 9.429-0.171 11.093-0.597 20.096-5.333 8.704-4.523 15.189-9.984 16.469-13.867 0.256-0.853 1.707-0.896 4.437-0.128 5.035 1.493 9.6-0.128 13.184-4.651 2.176-2.773 3.541-3.328 8.661-3.328 6.827 0 9.216-1.621 14.891-9.984 2.666-3.704 6.21-6.618 10.335-8.469l0.161-0.065c9.387-4.693 21.973-17.664 26.88-27.904 7.467-15.445 9.045-33.152 4.309-49.237-1.707-5.973-1.707-6.187 1.792-12.032 7.424-12.373 10.112-27.733 7.125-40.704l-1.749-7.68 5.035-4.992c24.875-24.875 21.205-65.323-9.173-101.547-3.243-3.84-7.040-9.899-8.448-13.568-5.973-15.488-12.544-26.368-21.291-35.328l-8.704-8.96h-9.131c-8.96 0-21.547 2.987-29.227 7.040-3.2 1.664-3.413 1.621-2.773-0.427 2.133-7.339 6.997-37.12 8.747-53.547 2.688-25.344 1.877-62.208-1.707-78.037-2.797-12.65-7.167-23.838-12.987-34.096l0.315 0.603c-3.243-5.376-3.541-6.613-2.816-12.971 1.024-9.259-1.152-24.576-4.907-34.688-4.437-11.819-6.101-17.365-7.083-23.296-0.853-5.205-0.853-5.248 2.816-5.248 4.907 0 7.467-2.901 7.467-8.491 0-2.56-2.133-15.957-4.779-29.867-7.296-38.741-7.765-43.221-7.851-80.853-0.128-38.784-0.171-38.485 8.704-44.245l19.797-12.885c15.668-10.594 33.613-20.010 52.588-27.357l1.855-0.632c27.861-11.008 31.701-13.824 31.701-23.211 0-4.053-0.811-5.675-4.267-9.003-10.752-10.368-31.744-12.672-74.112-8.192-19.771 1.996-42.787 3.157-66.064 3.2h-0.069c-58.24 0.853-66.859 2.859-74.453 17.408-4.352 8.32-3.584 19.2 2.517 37.035 2.224 6.057 4.612 14.041 6.601 22.181l0.354 1.712c3.968 19.413 1.28 42.368-8.021 68.437l-7.893 22.101c-7.936 22.528-12.203 63.744-7.509 73.045 0.853 1.707 2.304 2.133 6.229 1.877l5.077-0.427 4.096 8.704c3.2 6.741 6.741 11.264 16.213 20.821l12.16 12.203-0.597 7.765c-0.597 7.424-10.368 43.819-11.776 43.733-0.384 0-3.115-3.755-6.144-8.32-7.253-11.008-23.552-28.075-32.683-34.219-4.011-2.731-7.339-5.845-7.339-6.912-0.085-4.395-4.011-13.227-8.576-19.413-4.523-6.101-4.821-6.955-4.139-12.373 1.024-7.808-1.408-32.981-4.437-46.080-3.003-10.88-6.742-20.303-11.355-29.2l0.39 0.827c-11.52-23.893-20.139-45.141-22.4-55.040-1.437-8.305-2.476-18.196-2.886-28.249l-0.015-0.466c-0.555-11.264-1.707-22.357-2.56-24.619-1.109-3.2-1.152-5.632-0.085-10.496 0.768-3.499 1.28-11.349 1.152-17.493-0.171-8.533 0.512-14.080 2.987-24.064 4.267-16.939 5.205-27.605 3.115-33.963-1.28-3.925-2.731-5.504-7.083-7.68-10.112-5.12-38.357-7.893-53.717-5.248zM615.381-48.213c5.845 1.664 10.752 6.784 10.752 11.221 0 1.92-1.707 7.808-3.712 13.056-3.84 9.813-10.837 35.712-10.837 40.021 0 2.304 0.171 2.347 3.627 0.512l3.627-1.92-0.085 4.693c-0.475 4.66-1.439 8.927-2.851 12.984l0.12-0.397c-3.157 9.515-3.584 9.728-23.637 10.837l-13.739 0.725-4.907-4.821c-2.751-2.726-5.142-5.81-7.098-9.177l-0.113-0.21c-2.219-4.395-3.072-10.88-1.621-12.373 0.341-0.384 3.627 0 7.253 0.853 1.926 0.598 4.177 1.037 6.497 1.23l0.117 0.008c0-0.213-3.669-3.115-8.192-6.443-20.053-14.848-27.008-24.064-27.008-35.712 0-12.203 11.349-21.675 29.355-24.491 12.373-1.963 36.437-2.304 42.453-0.597zM886.485-28.373c4.992 6.059 4.395 12.16-1.963 19.2-3.58 3.652-7.681 6.775-12.188 9.25l-0.271 0.136c-5.56 2.935-10.135 5.695-14.551 8.673l0.556-0.353c-3.669 2.56-15.445 9.387-26.112 15.36-9.447 5.041-16.796 9.372-23.977 13.944l1.492-0.888-2.987 2.347v45.867c0 45.227-0.085 45.781-2.475 45.141-11.648-3.2-30.976-4.651-55.552-4.181l-26.411 0.427 3.755-9.301c7.125-17.749 10.837-41.387 10.795-68.523 0-10.155-0.597-13.909-3.115-20.992-0.462-0.915-1.723-4.439-2.931-7.987l-0.781-2.637c-0.469-1.493 1.365-2.56 8.277-4.608 4.907-1.493 12.331-3.029 16.512-3.499l7.595-0.768-0.768-7.723c-0.853-8.747 0.128-17.835 2.304-20.736 1.237-1.621 6.357-2.219 29.44-3.328 17.579-0.853 36.608-2.645 51.584-4.864 13.013-1.92 27.008-3.584 31.147-3.627 6.912-0.128 7.68 0.128 10.624 3.669zM619.733 49.749c0.64 0.427 1.579 9.472 2.005 20.096 1.323 29.867 2.432 34.133 17.493 67.797 12.245 27.477 18.816 53.12 18.219 71.381l-0.341 10.837-4.565-4.523c-9.685-9.6-3.029 5.547 8.405 19.072 8.661 10.24 11.648 16 13.099 25.045 0.597 3.669 2.005 5.547 7.68 9.813 21.419 16.427 36.992 37.12 47.061 62.421 2.389 6.016 8.448 26.453 13.44 45.483 9.301 35.243 14.293 50.304 18.773 56.875 1.707 2.517 2.347 2.901 1.92 1.237-2.56-10.027-3.413-14.080-5.547-27.179-1.365-8.149-3.84-24.064-5.461-35.328-3.328-22.699-6.656-37.376-11.136-48.811l-2.987-7.595 8.064-20.693c8.235-21.205 12.075-36.48 12.885-51.413l0.427-8.192-6.571-1.365c-8.783-1.631-16.209-6.502-21.138-13.3l-0.067-0.097c-5.803-8.107-8.875-14.848-7.381-16.384 0.64-0.64 8.832-2.133 18.133-3.2 14.592-1.707 20.053-1.792 39.211-0.555 9.178 0.427 17.69 1.281 26.063 2.56l-1.359-0.171c1.792 0.64 3.541 4.309 6.571 13.781 6.912 21.76 8.235 29.568 7.424 44.8l-0.683 13.525 3.499 4.48c8.192 10.411 14.507 29.099 17.067 50.773 3.2 26.709-2.56 82.603-13.44 130.645-5.12 22.741-7.253 36.437-7.253 46.507v8.832l-8.235-0.853c-29.312-3.243-64.768-2.347-86.528 2.133-11.776 2.389-41.643 11.093-48.213 14.037l-5.077 2.261-0.725-5.76c-0.46-3.769-1.058-7.044-1.83-10.252l0.124 0.609c-0.981-3.627-0.597-4.352 5.589-10.496 7.68-7.68 10.069-11.776 10.069-17.152 0-3.2-1.92-5.888-11.221-15.659-6.827-7.168-15.531-14.72-22.187-19.157l-10.923-7.339-4.523-16.043c-16.811-59.307-19.968-113.024-8.96-151.637l2.731-9.643-5.333-6.613c-20.053-25.259-31.829-44.416-33.621-55.040-0.341-2.133-2.048-9.173-3.755-15.659-4.267-16.469-7.595-40.661-9.045-66.816-1.363-27.383-2.95-50.123-4.94-72.748l0.502 7.084-0.725-6.485 8.32-2.56c4.608-1.408 11.648-3.115 15.659-3.712 7.424-1.195 21.291-0.981 23.339 0.341zM781.568 141.397c12.928 0.768 24.789 2.816 27.093 4.693 0.981 0.768 2.133 4.267 2.56 7.68l0.725 6.315-10.24-2.261c-6.863-1.413-15.286-2.592-23.849-3.278l-0.77-0.050c-5.318-0.25-11.552-0.393-17.819-0.393-14.492 0-28.806 0.763-42.904 2.25l1.757-0.15c-6.485 0.981-6.528 0.939-4.395-7.552 1.579-6.4 1.92-6.571 18.987-7.893 11.349-0.853 27.051-0.683 48.853 0.64zM770.688 170.411c16.896 1.408 38.144 5.035 42.24 7.253 1.323 0.725 2.603 3.157 3.072 5.931l1.536 8.875 0.768 4.224-4.096-0.853c-18.475-3.883-32.512-5.035-60.587-5.035-27.264 0-30.379 0.256-37.547 2.688-2.581 1.138-5.577 1.874-8.724 2.045l-0.065 0.003c-1.195-0.725-1.28-10.24-0.213-16.853 0.64-4.053 1.28-4.736 5.333-5.888 12.672-3.413 33.963-4.309 58.283-2.389zM461.397 320.725c42.667 12.203 98.475 48.512 144.085 93.739 14.933 14.848 16.64 16.939 18.645 23.467l2.731 8.491c0.299 0.683-2.389 1.92-5.888 2.773-9.216 2.219-16.085 7.424-16.171 12.288 0 2.816-1.707 5.632-6.4 10.88-7.979 8.875-9.941 12.715-10.795 21.205l-0.683 6.741-9.216 6.741c-5.291 3.84-24.064 14.165-43.861 24.107-18.495 9.039-33.012 17.006-47.166 25.517l2.835-1.581c-16.64 11.264-27.861 24.576-34.133 40.405-1.237 3.243-2.688 5.888-3.2 5.888-1.408 0-38.827-36.267-54.869-53.205-39.424-41.685-66.688-77.867-83.797-111.36-4.267-8.32-8.96-18.133-10.325-21.803l-2.56-6.699 3.115-11.093c1.707-6.101 5.547-15.915 8.533-21.76 10.496-20.651 23.083-33.152 43.691-43.307 22.187-10.965 41.813-14.763 74.667-14.379 17.749 0.213 22.827 0.683 30.763 2.944zM124.629 466.773c28.032 24.832 66.688 52.053 114.091 80.299 31.019 18.475 150.741 78.379 205.909 102.997 9.984 4.48 19.029 8.576 20.053 9.173 0.981 0.555 3.883 7.68 6.443 15.744 11.776 37.077 17.579 44.416 38.741 49.195 2.688 0.597 3.328 1.451 3.328 4.224 0 4.693 3.328 15.957 6.187 20.949 2.133 3.84 2.176 4.053 0.213 3.499-1.152-0.384-8.107-2.389-15.488-4.523-101.547-29.312-190.379-68.267-267.093-116.992-81.92-52.053-128.939-114.347-142.635-188.971l-1.024-5.547 9.899 9.856c5.419 5.419 15.061 14.464 21.376 20.096zM878.848 452.693c8.107 4.181 20.779 23.381 25.472 38.485 1.492 5.603 4.182 10.451 7.793 14.452l-0.027-0.031c12.459 13.653 22.656 38.613 22.699 55.637 0 26.453-14.891 36.651-36.821 25.259-2.731-1.408-5.163-2.347-5.419-2.048-1.237 1.237 4.992 7.253 12.373 11.947 9.941 6.4 11.819 10.24 11.819 24.149 0 11.563-2.944 21.035-9.6 31.275-2.987 4.48-4.181 7.552-3.712 9.301l3.072 11.264c4.096 14.805 2.603 31.744-3.755 42.539-9.685 16.427-21.589 24.448-38.144 25.685l-9.6 0.725 5.717-6.272c16.725-18.304 24.875-41.088 21.675-60.587-1.664-9.899-3.285-11.947-12.928-15.872l-5.547-2.261 0.64-7.637c1.109-12.587-1.024-21.675-9.045-38.613-3.968-8.448-6.997-16.043-6.699-16.853 1.067-2.859 11.947-8.32 20.608-10.411l8.533-2.048-5.333-1.707c-6.869-2.261-8.448-5.376-8.491-16.939 0-10.453 1.493-14.763 9.259-26.283 3.413-5.035 5.76-10.112 6.144-13.141 0.64-4.736 0.427-5.035-3.413-6.443-3.881-1.093-8.401-1.854-13.051-2.125l-0.175-0.008c-15.659-0.981-16.853-1.408-23.808-8.107-6.4-6.101-6.528-6.443-6.528-13.099 0-9.173 3.413-27.52 5.632-30.037 2.731-3.115 18.603-10.88 24.747-12.075 1.623-0.406 3.487-0.638 5.405-0.638 3.835 0 7.452 0.93 10.639 2.576l-0.13-0.061zM648.021 465.237c10.197 7.979 18.133 15.957 22.699 22.827 2.773 4.181 2.944 4.992 1.536 8.405-2.219 5.419-17.536 19.2-26.069 23.339-5.184 2.434-11.199 4.231-17.513 5.084l-0.322 0.036-10.496 1.451-6.571 8.192c-13.397 16.64-20.907 29.568-31.659 54.699-9.216 21.419-17.451 33.92-30.421 46.165-5.333 5.035-9.259 9.173-8.789 9.173 0.512 0 6.869-3.115 14.208-6.955 12.288-6.443 13.696-6.912 19.243-6.229 19.84 2.389 37.248 25.216 43.691 57.173 1.835 9.131 5.419 18.304 9.301 23.765 0.171 0.213 7.765-4.907 16.853-11.392 22.784-16.213 27.819-18.603 40.747-19.115 8.619-0.341 13.397 0.341 28.672 4.011 32.64 7.936 68.011 11.179 89.6 8.235 12.16-1.664 29.525-6.955 42.667-13.056 12.843-5.973 15.317-6.315 19.499-2.645 3.413 2.987 3.456 3.413 3.413 14.592-0.085 16.469-6.144 34.304-15.36 44.928-4.693 5.504-17.707 14.507-30.72 21.376-7.414 3.825-11.979 6.35-16.502 8.94l2.55-1.346c-6.059 3.541-13.184 3.115-32.085-1.877-21.973-5.76-27.819-5.675-53.035 0.768-21.291 5.461-22.699 5.547-43.605 2.261-11.136-1.749-39.168-0.725-48.555 1.749-5.966 1.638-10.582 3.153-15.112 4.845l1.246-0.408c-8.107 3.029-22.272 3.541-35.072 1.28-25.6-4.565-44.971-18.347-51.968-37.12-3.584-9.557-3.115-14.037 1.792-17.109 7.552-4.779 17.749-17.963 17.749-23.040 0-0.427-2.389 1.749-5.333 4.821-7.083 7.424-13.653 10.709-21.333 10.709-10.386-0.239-19.271-6.429-23.399-15.283l-0.068-0.163c-1.881-4.694-3.823-10.667-5.421-16.778l-0.254-1.142c-4.693-17.152-8.789-26.112-17.579-38.059-7.936-10.795-9.003-15.616-6.229-27.776 6.997-30.677 19.115-43.136 69.931-71.936 26.667-15.104 40.448-23.595 50.432-31.104 7.637-5.675 7.851-5.973 7.168-10.368-1.579-9.941 4.779-20.907 17.323-29.653 3.2-2.219 5.205-4.565 5.205-6.101 0-3.072 8.363-7.253 14.635-7.253 3.413 0 6.187 1.451 13.312 7.083zM853.461 521.301c19.371-0.555 20.437 0.811 10.027 12.843-10.837 12.587-13.781 22.699-9.813 33.877l1.579 4.352-6.784 3.328c-1.934 1.066-4.229 2.102-6.608 2.962l-0.347 0.11c-0.667-2.004-1.828-6.44-2.901-10.91l-0.469-2.316c-2.475-10.24-5.547-36.523-5.589-47.787 0-0.981 1.621-0.555 4.48 1.195 3.925 2.347 5.973 2.645 16.427 2.347zM788.693 522.368c11.648 0.64 23.723 1.536 26.88 1.963l5.717 0.768 0.725 19.285c0.981 27.307 4.907 43.435 16.768 69.205 8.448 18.347 11.989 34.432 10.24 46.336-0.768 5.205-1.067 5.547-8.021 8.576-11.473 4.705-24.883 8.468-38.814 10.66l-1.037 0.134c-13.227 1.92-51.797 0.811-66.347-1.92-5.973-1.109-16.939-3.413-24.32-5.163-18.176-4.267-27.819-3.712-41.643 2.347-13.653 6.016-22.357 11.435-30.592 19.115-6.443 6.016-7.040 6.315-8.789 4.309-1.28-1.493-2.005-5.973-2.432-15.701-0.597-14.805-2.816-22.613-9.387-33.152-1.372-1.967-2.603-4.214-3.583-6.591l-0.086-0.236c0-0.512 5.077-6.229 11.264-12.629 21.291-22.187 31.744-27.904 48.555-26.624 5.547 0.427 9.387 0.256 9.387-0.427 0-1.237-10.837-9.813-15.403-12.203-2.048-1.067-2.56-2.261-2.219-4.821l2.56-17.408c1.536-10.069 2.731-14.635 4.267-16 3.968-3.413 24.619-14.080 37.547-19.285 17.109-6.955 26.325-9.429 39.424-10.539 15.915-1.323 16.256-1.323 39.339 0zM650.88 540.587c0.341 0.64-0.939 10.24-2.987 21.419-2.688 15.189-4.181 20.693-5.845 22.101-1.28 1.024-7.381 5.461-13.611 9.856-8.473 6.287-15.945 12.608-22.995 19.365l0.083-0.079-11.563 11.264-6.059-3.2-6.571-3.541c0.629-2.839 1.57-5.346 2.809-7.67l-0.078 0.161c1.707-3.968 5.376-13.781 8.107-21.76 7.040-20.864 12.416-30.848 26.283-48.981l5.291-6.869 9.813-1.536c5.376-0.853 10.965-1.963 12.416-2.517 2.389-0.896 2.688-0.512 3.413 4.907 0.255 2.619 0.783 5.022 1.56 7.31l-0.067-0.227zM861.995 747.947c8.533 0.811 9.984 2.133 6.272 5.888-2.219 2.261-7.637 2.517-11.947 0.512-2.901-1.323-3.499-1.024-7.979 3.84-4.693 5.205-4.949 5.333-10.837 4.608-5.333-0.64-6.144-0.427-6.827 1.749-2.213 3.672-4.756 6.839-7.664 9.627l-0.016 0.015c-3.715 4.252-8.36 7.596-13.626 9.727l-0.241 0.086c-10.368 3.925-16.128 3.499-25.984-1.92-28.459-15.573-27.307-15.403-54.741-8.405-25.728 6.571-44.971 13.099-51.072 17.365-5.12 3.541-16.171 7.253-25.301 8.533-6.827 0.939-11.264-0.555-17.749-5.973l-3.413-2.816 3.072-5.461c4.352-7.723 3.925-8.149-2.645-2.56-6.955 5.973-15.232 9.984-20.693 10.027-3.797 0-15.147-4.907-16.512-7.168-0.384-0.597 3.115-1.408 7.723-1.835 4.907-0.427 11.563-2.048 16.043-3.968 11.605-4.949 17.664-6.571 28.331-7.68 11.648-1.109 32.896 0.213 35.328 2.261 1.237 1.067 4.907 1.237 12.629 0.64 10.155-0.768 14.379-1.707 38.528-8.235 13.995-3.84 23.808-3.541 40.491 1.109 7.68 2.133 17.323 4.267 21.376 4.693 6.827 0.725 8.192 0.427 18.773-4.395 17.067-7.68 26.027-12.629 31.061-17.067 4.992-4.267 5.547-4.395 17.621-3.2zM766.933 777.131l10.155 5.291-0.213 10.453c-0.193 8.017-0.531 15.369-1.023 22.678l0.084-1.558-0.725 10.709-10.155-7.851c-6.016-4.693-11.861-8.192-14.464-8.661-7.296-1.408-43.349 0-46.763 1.792-4.584 3.454-8.641 7.077-12.376 11.008l-0.040 0.042-9.387 9.387-0.128-5.547c0-2.987-0.469-8.192-1.024-11.435-0.939-5.888-0.853-6.059 5.547-14.208 3.584-4.565 6.485-8.619 6.485-9.045 0-3.243 48.128-18.176 58.965-18.347 3.456 0 7.851 1.536 15.061 5.291zM747.648 815.061c12.032 2.304 17.92 11.008 22.315 32.981 4.693 23.637 7.083 60.8 4.821 76.672-2.005 14.251-17.877 20.693-48.469 19.669-18.944-0.64-26.795-2.517-33.237-7.979-4.011-3.413-4.096-3.712-5.845-19.499-3.413-30.336 1.536-73.557 10.24-89.813 4.139-7.808 7.851-10.667 15.573-11.947 8.661-1.493 27.093-1.536 34.603-0.085z" />
<glyph unicode="&#xe904;" glyph-name="tailwindcss" d="M512.043 755.2c-136.533 0-221.867-68.267-256-204.8 51.2 68.267 110.933 93.867 179.2 76.8 38.955-9.728 66.773-37.973 97.621-69.291 50.219-50.944 108.288-109.909 235.179-109.909 136.533 0 221.867 68.267 256 204.8-51.2-68.267-110.933-93.867-179.2-76.8-38.955 9.728-66.773 37.973-97.621 69.291-50.176 50.944-108.245 109.909-235.179 109.909zM256.043 448c-136.533 0-221.867-68.267-256-204.8 51.2 68.267 110.933 93.867 179.2 76.8 38.955-9.728 66.773-37.973 97.621-69.291 50.219-50.944 108.288-109.909 235.179-109.909 136.533 0 221.867 68.267 256 204.8-51.2-68.267-110.933-93.867-179.2-76.8-38.955 9.728-66.773 37.973-97.621 69.291-50.176 50.944-108.245 109.909-235.179 109.909z" />
<glyph unicode="&#xe905;" glyph-name="nuxt" d="M841.557 95.061l0.981 1.92c0.811 1.408 1.574 3.056 2.192 4.772l0.069 0.22 0.085 0.213c1.949 5.106 3.078 11.012 3.078 17.181 0 3.081-0.282 6.097-0.82 9.022l0.047-0.304 0.043-0.299c-1.799 10.015-5.299 18.947-10.216 26.911l0.189-0.33 0.213-0.341-226.859 399.061-34.645 60.587-261.163-459.648c-4.141-7.448-7.188-16.121-8.646-25.323l-0.058-0.448-0.043-0.469c-0.537-2.85-0.844-6.129-0.844-9.479 0-7.564 1.566-14.763 4.392-21.289l-0.134 0.347-0.128 0.341c0.699-1.712 1.414-3.143 2.221-4.513l-0.088 0.161-0.085 0.171c6.827-11.733 21.333-25.685 53.333-25.685h422.315c6.699 0 39.467 1.365 54.571 27.221zM575.872 492.544l207.317-364.715h-414.549zM1013.163 154.027l-299.349 527.36c-3.072 5.547-20.352 33.579-50.432 33.579-13.525 0-32.939-5.76-48.725-33.493l-38.699-67.84 34.432-60.587 53.333 94.379 296.149-519.68h-112.64c0.438-2.502 0.689-5.383 0.689-8.323 0-6.327-1.16-12.383-3.279-17.966l0.116 0.348 0.128 0.341c-0.731-2.081-1.552-3.855-2.517-5.537l0.085 0.161 0.085 0.171-0.981-1.92c-15.147-25.813-47.872-27.179-54.272-27.179h176.171c6.485 0 39.125 1.365 54.272 27.179 6.699 11.733 11.52 31.445-4.565 59.008zM311.637 93.568c-0.595 1.039-1.238 2.328-1.814 3.653l-0.106 0.272-0.085 0.256c-2.792 6.2-4.419 13.44-4.419 21.061 0 3.294 0.304 6.516 0.885 9.641l-0.050-0.324-0.043-0.299h-241.963l359.637 632.832 118.059-207.531 34.219 60.587-102.912 181.291c-2.859 5.205-20.267 33.152-50.219 33.152-13.525 0-32.939-5.845-48.725-33.579l-364.288-640.512c-3.072-5.547-18.133-34.645-3.2-60.459 6.827-11.733 21.333-25.685 53.333-25.685h305.109c-31.787 0-46.507 13.739-53.419 25.643z" />
<glyph unicode="&#xe906;" glyph-name="vue" d="M1024 891.307h-424.107l-87.893-151.467-87.893 151.467h-424.107l512-886.613zM512 359.253l-291.84 505.6h189.013l102.827-178.347 102.827 178.347h189.013z" />
<glyph unicode="&#xe907;" glyph-name="trash" horiz-adv-x="805" d="M292.571 530.286v-329.143c0-10.286-8-18.286-18.286-18.286h-36.571c-10.286 0-18.286 8-18.286 18.286v329.143c0 10.286 8 18.286 18.286 18.286h36.571c10.286 0 18.286-8 18.286-18.286zM438.857 530.286v-329.143c0-10.286-8-18.286-18.286-18.286h-36.571c-10.286 0-18.286 8-18.286 18.286v329.143c0 10.286 8 18.286 18.286 18.286h36.571c10.286 0 18.286-8 18.286-18.286zM585.143 530.286v-329.143c0-10.286-8-18.286-18.286-18.286h-36.571c-10.286 0-18.286 8-18.286 18.286v329.143c0 10.286 8 18.286 18.286 18.286h36.571c10.286 0 18.286-8 18.286-18.286zM658.286 116.571v541.714h-512v-541.714c0-27.429 15.429-43.429 18.286-43.429h475.429c2.857 0 18.286 16 18.286 43.429zM274.286 731.428h256l-27.429 66.857c-1.714 2.286-6.857 5.714-9.714 6.286h-181.143c-3.429-0.571-8-4-9.714-6.286zM804.571 713.143v-36.571c0-10.286-8-18.286-18.286-18.286h-54.857v-541.714c0-62.857-41.143-116.571-91.429-116.571h-475.429c-50.286 0-91.429 51.429-91.429 114.286v544h-54.857c-10.286 0-18.286 8-18.286 18.286v36.571c0 10.286 8 18.286 18.286 18.286h176.571l40 95.429c11.429 28 45.714 50.857 76 50.857h182.857c30.286 0 64.571-22.857 76-50.857l40-95.429h176.571c10.286 0 18.286-8 18.286-18.286z" />
<glyph unicode="&#xe908;" glyph-name="home" d="M426 84.667h-212v342h-128l426 384 426-384h-128v-342h-212v256h-172v-256z" />
<glyph unicode="&#xe909;" glyph-name="card" horiz-adv-x="1365" d="M170.667-64c-94.257 0-170.667 76.41-170.667 170.667v0 85.333h1365.333v-85.333c0-94.257-76.41-170.667-170.667-170.667v0zM0 362.667v426.667c0 94.257 76.41 170.667 170.667 170.667v0h1024c94.257 0 170.667-76.41 170.667-170.667v0-426.667zM938.667 661.295v-85.295c0-23.564 19.103-42.667 42.667-42.667v0h170.667c23.564 0 42.667 19.103 42.667 42.667v0 85.295c0 0.011 0 0.025 0 0.038 0 23.543-19.086 42.629-42.629 42.629-0.013 0-0.027 0-0.040 0h-170.665c-23.551 0-42.645-19.081-42.667-42.627v-0.002z" />
<glyph unicode="&#xe90a;" glyph-name="facebook" horiz-adv-x="1030" d="M1030.239 444.84c-0.004 284.489-230.629 515.112-515.119 515.112-284.493 0-515.119-230.627-515.119-515.119 0-256.076 186.855-468.509 431.658-508.393l2.97-0.399v359.927h-130.768v148.913h130.768v113.479c0 129.137 76.944 200.413 194.541 200.413 41.173-0.581 81.031-4.207 119.933-10.664l-4.619 0.633v-126.772h-64.915c-2.943 0.412-6.343 0.647-9.798 0.647-41.121 0-74.456-33.335-74.456-74.456 0-2.338 0.108-4.651 0.319-6.934l-0.022 0.293v-96.679h142.715l-22.834-148.954h-119.84v-359.927c247.763 40.333 434.599 252.763 434.628 508.837v0.003z" />
<glyph unicode="&#xe90b;" glyph-name="garantied" d="M644.292 904.301c-33.607 34.385-80.452 55.706-132.278 55.706s-98.671-21.321-132.244-55.671l-0.034-0.035-39.826-40.821-56.894 0.711c-0.698 0.009-1.521 0.015-2.346 0.015-102.12 0-184.904-82.784-184.904-184.904 0-0.795 0.005-1.59 0.015-2.383l-0.001 0.12 0.626-56.894-40.707-39.826c-34.385-33.607-55.706-80.452-55.706-132.278s21.321-98.671 55.671-132.244l0.035-0.034 40.764-39.826-0.711-56.894c-0.010-0.706-0.015-1.54-0.015-2.375 0-102.12 82.784-184.904 184.904-184.904 0.796 0 1.59 0.005 2.383 0.015l-0.12-0.001 56.894 0.626 39.826-40.707c33.607-34.385 80.452-55.706 132.278-55.706s98.671 21.321 132.244 55.671l0.034 0.035 39.826 40.764 56.894-0.711c0.672-0.009 1.466-0.014 2.261-0.014 102.12 0 184.904 82.784 184.904 184.904 0 0.795-0.005 1.589-0.015 2.381l0.001-0.12-0.626 56.894 40.707 39.826c34.385 33.607 55.706 80.452 55.706 132.278s-21.321 98.671-55.671 132.244l-0.035 0.034-40.764 39.826 0.711 56.894c0.009 0.672 0.014 1.466 0.014 2.261 0 102.12-82.784 184.904-184.904 184.904-0.795 0-1.589-0.005-2.381-0.015l0.12 0.001-56.894-0.626-39.826 40.707zM662.754 521.293c5.782 5.806 9.356 13.815 9.356 22.658 0 17.736-14.378 32.114-32.114 32.114-8.893 0-16.941-3.615-22.756-9.455l-169.26-169.402-73.364 73.507c-5.806 5.782-13.815 9.356-22.658 9.356-17.736 0-32.114-14.378-32.114-32.114 0-8.893 3.615-16.941 9.455-22.756l96.009-96.009c5.794-5.808 13.806-9.402 22.658-9.402s16.864 3.594 22.657 9.401l192.017 192.017z" />
<glyph unicode="&#xe90c;" glyph-name="handshake" horiz-adv-x="1621" d="M135.063 329.708c0.91-0.073 1.97-0.114 3.040-0.114 15.862 0 29.594 9.114 36.247 22.391l0.106 0.234c3.542 6.517 5.625 14.27 5.625 22.51s-2.082 15.994-5.75 22.763l0.125-0.253c-6.759 13.511-20.492 22.625-36.353 22.625-1.070 0-2.13-0.041-3.179-0.123l0.139 0.009c-0.91 0.073-1.97 0.114-3.040 0.114-15.862 0-29.594-9.114-36.247-22.391l-0.106-0.234c-3.542-6.517-5.625-14.27-5.625-22.51s2.082-15.994 5.75-22.763l-0.125 0.253c6.759-13.511 20.492-22.625 36.353-22.625 1.070 0 2.13 0.041 3.179 0.123l-0.139-0.009zM1171.263 370.497l-27.013 35.161q-20.079 26.022-29.174 37.998t-26.742 34.486-29.894 37.277-28.498 33.045-31.515 34.486l-87.926-98.506c-33.834-39.768-83.921-64.83-139.861-64.83-2.476 0-4.941 0.049-7.394 0.146l0.352-0.011c-0.326-0.002-0.712-0.003-1.098-0.003-57.887 0-109.519 26.777-143.187 68.62l-0.277 0.355c-24.733 29.578-39.752 68.019-39.752 109.968 0 42.711 15.569 81.785 41.342 111.857l-0.194-0.232 124.528 144.922c-10.412 5.163-22.493 9.199-35.181 11.49l-0.836 0.125c-9.716 2.105-21.177 3.617-32.881 4.211l-0.525 0.021q-13.011 0.36-39.753-0.36t-34.351-0.765c-0.582 0.008-1.269 0.013-1.957 0.013-42.866 0-81.577-17.787-109.155-46.383l-0.044-0.046-111.112-111.157h-109.041v-382.677q3.512 0 14.767 0.36t15.487 0 13.506-1.396c5.28-0.399 10.177-1.538 14.756-3.316l-0.349 0.119q4.907-2.161 12.291-5.988c5.001-2.597 9.289-5.765 13.010-9.498l0.001-0.001 209.167-205.385c39.799-44.527 95.964-73.704 158.961-78.026l0.728-0.040c1.657-0.083 3.599-0.13 5.552-0.13 31.999 0 61.044 12.645 82.412 33.211l-0.038-0.036c9.895-3.713 21.331-5.862 33.269-5.862 16.797 0 32.599 4.254 46.39 11.745l-0.512-0.255c24.631 11.811 43.101 33.148 50.836 59.111l0.173 0.676c3.48-0.386 7.515-0.606 11.601-0.606 30.241 0 57.668 12.047 77.744 31.603l-0.024-0.023c9.903 9.147 18.328 19.694 25.009 31.369l0.338 0.641c6.206 9.386 9.901 20.906 9.901 33.289 0 0.785-0.015 1.567-0.044 2.345l0.003-0.112c6.955-4.619 15.498-7.369 24.683-7.369 1.964 0 3.898 0.126 5.796 0.37l-0.225-0.024c0.429-0.007 0.936-0.010 1.444-0.010 19.446 0 37.607 5.499 53.014 15.027l-0.433-0.249c14.972 8.905 26.864 21.593 34.566 36.767l0.235 0.51c5.65 11.918 8.95 25.894 8.95 40.641 0 23.377-8.291 44.817-22.092 61.541l0.132-0.164zM1283.095 329.708h67.531v360.167h-65.415l-110.436 126.644c-27.757 32.804-68.953 53.491-114.981 53.491-1.378 0-2.752-0.019-4.121-0.055l0.202 0.004h-117.459c-0.923 0.024-2.010 0.037-3.1 0.037-40.039 0-75.808-18.282-99.415-46.953l-0.177-0.221-146.903-170.944c-12.246-13.886-19.72-32.233-19.72-52.326 0-0.154 0-0.308 0.001-0.462v0.024c-0.002-0.186-0.002-0.405-0.002-0.624 0-19.914 7.183-38.151 19.1-52.26l-0.099 0.12c18.303-22.383 45.919-36.558 76.846-36.558 0.144 0 0.288 0 0.432 0.001h-0.022c1.098-0.044 2.388-0.070 3.683-0.070 29.767 0 56.412 13.362 74.267 34.415l0.117 0.141 135.783 153.296c9.216 9.353 22.022 15.148 36.181 15.148 0.512 0 1.023-0.008 1.531-0.023l-0.075 0.002c23.147-2.052 41.159-21.35 41.159-44.855 0-4.884-0.778-9.587-2.216-13.99l0.090 0.318q11.255-13.506 39.393-44.301t42.23-47.857q20.394-25.347 58.032-74.194t45.381-59.428c22.38-27.003 37.54-60.741 42.092-97.762l0.093-0.924zM1485.689 329.708c0.91-0.073 1.97-0.114 3.040-0.114 15.862 0 29.594 9.114 36.247 22.391l0.106 0.234c3.546 6.516 5.631 14.27 5.631 22.51s-2.085 15.994-5.756 22.763l0.125-0.252c-8.104 13.557-22.705 22.494-39.393 22.494s-31.289-8.937-39.278-22.286l-0.116-0.208c-3.542-6.517-5.625-14.27-5.625-22.51s2.082-15.994 5.75-22.763l-0.125 0.253c6.759-13.511 20.492-22.625 36.353-22.625 1.070 0 2.13 0.041 3.179 0.123l-0.139-0.009zM1620.752 734.896v-450.209c-0.35-24.722-20.298-44.671-44.988-45.021h-305.32c-12.572-30.43-32.33-55.728-57.23-74.594l-0.442-0.321c-24.511-18.672-54.386-31.57-86.935-36.128l-0.99-0.114c-15.57-22.517-34.355-41.517-55.934-56.838l-0.702-0.473c-20.456-14.74-44.601-25.838-70.712-31.758l-1.321-0.252c-19.42-24.433-44.057-43.876-72.296-56.81l-1.223-0.502c-23.257-11.091-50.545-17.568-79.346-17.568-3.889 0-7.751 0.118-11.582 0.351l0.526-0.026c-25.502-14.934-55.646-24.884-87.833-27.72l-0.814-0.058c-6.040-0.563-13.061-0.884-20.158-0.884-24.831 0-48.745 3.929-71.153 11.201l1.629-0.457c-31.414 10.104-58.653 22.866-83.883 38.556l1.585-0.918c-27.525 17.104-51.402 35.998-72.931 57.263l0.042-0.041-201.874 198.092h-251.847c-0.032 0-0.071 0-0.109 0-12.357 0-23.504 5.18-31.387 13.487l-0.018 0.019c-8.326 7.894-13.506 19.035-13.506 31.386 0 0.045 0 0.090 0 0.136v-0.007 472.719c0 0.032 0 0.071 0 0.109 0 12.357 5.18 23.504 13.487 31.387l0.019 0.018c7.902 8.326 19.048 13.506 31.405 13.506 0.038 0 0.077 0 0.115 0h296.141q9.86 9.86 33.045 33.766t33.405 33.766 30.974 28.138c10.473 9.668 22.1 18.387 34.565 25.851l0.956 0.531q14.767 8.104 36.017 18.008c12.604 6.018 27.241 10.758 42.575 13.486l1.050 0.155c13.857 2.466 29.81 3.876 46.093 3.876 0.557 0 1.114-0.002 1.67-0.005h82.212c0.425 0.003 0.927 0.005 1.43 0.005 47.098 0 90.752-14.744 126.598-39.869l-0.709 0.471c35.137 24.654 78.791 39.398 125.889 39.398 0.503 0 1.005-0.002 1.507-0.005h117.382c0.277 0.001 0.605 0.002 0.933 0.002 16.352 0 32.343-1.541 47.838-4.485l-1.589 0.251c15.43-2.804 28.788-6.345 41.715-10.809l-1.962 0.589c13.857-5.106 25.834-11.376 36.84-18.954l-0.553 0.36q19.044-12.606 31.29-21.79c11.070-8.771 20.948-17.865 30.118-27.632l0.136-0.146q18.008-18.594 27.418-29.534t28.858-33.766l29.129-34.171h249.731c24.722-0.35 44.671-20.298 45.021-44.988v-0.033z" />
<glyph unicode="&#xe90d;" glyph-name="delivery" horiz-adv-x="1404" d="M1212.673 702.508l191.617-254.508v-320.383h-125.625c-1.476-105.751-87.234-190.987-193.048-191.617h-0.061c-0.885-0.016-1.929-0.024-2.976-0.024-51.887 0-98.675 21.836-131.674 56.82l-0.083 0.089c-34.216 33.845-55.404 80.801-55.404 132.705 0 0.713 0.004 1.425 0.012 2.136l-0.001-0.108h-383.431c0.005-0.483 0.007-1.054 0.007-1.626 0-52.306-21.807-99.519-56.825-133.043l-0.067-0.064c-33.855-35.101-81.299-56.9-133.835-56.9-0.84 0-1.679 0.006-2.517 0.017l0.127-0.001c-0.885-0.016-1.929-0.024-2.976-0.024-51.887 0-98.675 21.836-131.674 56.82l-0.083 0.089c-34.216 33.845-55.404 80.801-55.404 132.705 0 0.713 0.004 1.425 0.012 2.136l-0.001-0.108h-128.766v703.657c-0.015 0.721-0.024 1.571-0.024 2.423 0 34.827 14.329 66.307 37.413 88.867l0.024 0.023c22.596 23.154 54.112 37.514 88.983 37.514 0.833 0 1.665-0.008 2.494-0.025l-0.124 0.002h892.29v-257.57h191.617zM318.891 31.789c0.023 0 0.051 0 0.079 0 53.662 0 97.163 43.501 97.163 97.163 0 0.055 0 0.11 0 0.166v-0.009c0.017 0.652 0.027 1.419 0.027 2.189 0 25.732-10.944 48.907-28.432 65.125l-0.057 0.052c-17.308 16.678-40.886 26.951-66.864 26.951-0.701 0-1.401-0.007-2.098-0.022l0.104 0.002c-0.651 0.017-1.417 0.026-2.185 0.026-50.843 0-92.060-41.216-92.060-92.060 0-0.768 0.009-1.535 0.028-2.298l-0.002 0.113c-0.011-0.547-0.017-1.193-0.017-1.839 0-26.026 10.27-49.654 26.979-67.051l-0.031 0.033c16.326-17.59 39.573-28.562 65.383-28.562 0.698 0 1.393 0.008 2.087 0.024l-0.103-0.002zM1182.562 606.68h-161.546v-158.68h284.462zM1085.399 31.789c0.047 0 0.102 0 0.157 0 53.662 0 97.163 43.501 97.163 97.163 0 0.055 0 0.11 0 0.166v-0.008c0.017 0.652 0.027 1.419 0.027 2.189 0 25.732-10.944 48.907-28.432 65.125l-0.057 0.052c-17.308 16.678-40.886 26.951-66.864 26.951-0.701 0-1.401-0.007-2.098-0.022l0.104 0.002c-0.651 0.017-1.417 0.026-2.185 0.026-50.843 0-92.060-41.216-92.060-92.060 0-0.768 0.009-1.535 0.028-2.298l-0.002 0.113c-0.011-0.547-0.017-1.193-0.017-1.839 0-26.026 10.27-49.654 26.979-67.051l-0.031 0.033c16.326-17.589 39.572-28.561 65.381-28.561 0.67 0 1.339 0.007 2.006 0.022l-0.099-0.002z" />
<glyph unicode="&#xe90e;" glyph-name="quote" horiz-adv-x="1293" d="M862.261-63.984c-59.533 0-107.794 48.261-107.794 107.794v0 358.391c0.075 204.824 104.012 385.356 262.001 491.8l2.113 1.341 97.002 64.674 58.784-89.453-96.486-64.658c-110.848-75.061-188.264-192.324-209.291-328.215l-0.346-2.718h317.4c59.518-0.009 107.763-48.26 107.763-107.779 0-0.005 0-0.011 0-0.016v0.001-323.368c0-59.522-48.243-107.777-107.761-107.794h-0.002zM107.794-63.984c-59.533 0-107.794 48.261-107.794 107.794v0 358.391c0.075 204.824 104.012 385.356 262.001 491.8l2.113 1.341 96.423 64.674 59.317-89.453-96.486-64.658c-110.855-75.055-188.275-192.321-209.291-328.218l-0.346-2.715h317.431c59.516 0 107.763-48.247 107.763-107.763 0-0.011 0-0.022 0-0.033v0.002-323.368c0-0.005 0-0.010 0-0.016 0-59.519-48.245-107.77-107.762-107.779h-0.001z" />
<glyph unicode="&#xe90f;" glyph-name="instagram" d="M511.98 972.8c-139.050 0-156.472-0.606-211.082-3.072-44.886-0.949-87.472-9.6-126.879-24.677l2.583 0.868c-68.964-27.126-122.547-80.643-149.144-147.789l-0.618-1.771c-14.196-36.824-22.845-79.408-23.801-123.886l-0.007-0.41c-2.466-54.973-3.032-72.193-3.032-211.243s0.566-156.472 3.072-211.082c0.949-44.886 9.6-87.472 24.677-126.879l-0.868 2.583c27.161-69.005 80.757-122.601 147.99-149.145l1.772-0.617c36.824-14.196 79.408-22.845 123.886-23.801l0.41-0.007c54.61-2.466 72.072-3.072 211.082-3.072s156.472 0.606 211.082 3.072c44.886 0.949 87.472 9.6 126.879 24.677l-2.583-0.868c69.005 27.161 122.601 80.757 149.145 147.99l0.617 1.772c14.196 36.824 22.845 79.408 23.801 123.886l0.007 0.41c2.466 54.61 3.072 72.072 3.072 211.082s-0.606 156.472-3.072 211.082c-0.949 44.886-9.6 87.472-24.677 126.879l0.868-2.583c-27.161 69.005-80.757 122.601-147.99 149.145l-1.772 0.617c-36.824 14.196-79.408 22.845-123.886 23.801l-0.41 0.007c-54.65 2.425-72.031 3.032-211.122 3.032zM511.98 880.558c136.706 0 152.874-0.525 206.837-2.951 34.26-0.436 66.889-6.862 97.069-18.273l-1.957 0.649c44.696-17.599 79.412-52.316 96.612-95.863l0.4-1.149c10.764-28.21 17.189-60.826 17.622-94.885l0.002-0.186c2.466-54.044 2.951-70.131 2.951-206.918s-0.525-152.874-2.951-206.837c-0.475-34.266-6.897-66.89-18.276-97.084l0.652 1.972c-17.599-44.696-52.316-79.412-95.863-96.612l-1.149-0.4c-28.21-10.764-60.826-17.189-94.885-17.622l-0.186-0.002c-53.963-2.466-70.131-2.951-206.918-2.951s-152.955 0.525-206.837 2.951c-34.154 0.373-66.724 6.669-96.888 17.906l1.979-0.646c-44.696 17.599-79.412 52.316-96.612 95.863l-0.4 1.149c-10.799 28.211-17.228 60.832-17.622 94.903l-0.002 0.169c-2.466 54.044-2.951 70.131-2.951 206.918s0.525 152.874 2.951 206.837c0.324 34.219 6.639 66.865 17.944 97.075l-0.644-1.963c17.599 44.696 52.316 79.412 95.863 96.612l1.149 0.4c28.211 10.799 60.832 17.228 94.903 17.622l0.169 0.002c54.044 2.466 70.131 2.951 206.918 2.951zM511.859 289.796c-94.253 0-170.66 76.407-170.66 170.66s76.407 170.66 170.66 170.66c94.253 0 170.66-76.407 170.66-170.66v0c0-0.012 0-0.026 0-0.040 0-94.231-76.389-170.62-170.62-170.62-0.014 0-0.028 0-0.043 0h0.002zM511.859 723.358c-145.107 0-262.74-117.633-262.74-262.74s117.633-262.74 262.74-262.74c145.107 0 262.74 117.633 262.74 262.74v0c0 145.107-117.633 262.74-262.74 262.74v0zM846.59 733.747c0-33.933-27.508-61.441-61.441-61.441s-61.441 27.508-61.441 61.441c0 33.933 27.508 61.441 61.441 61.441v0c33.933 0 61.441-27.508 61.441-61.441v0z" />
<glyph unicode="&#xe910;" glyph-name="arrow-top-light" d="M469.332 917.347l-254.925-254.925c-11.783-11.783-11.783-30.888 0-42.671s30.888-11.783 42.671 0v0l224.771 224.771v-865.858c0-7.766 2.962-15.531 8.887-21.456 11.85-11.85 31.063-11.85 42.913 0 5.925 5.925 8.887 13.691 8.887 21.456l-0.379 865.858 224.771-224.771c11.783-11.783 30.888-11.783 42.671 0s11.783 30.888 0 42.671v0l-254.925 254.925c-23.579 23.536-61.762 23.536-85.34 0.002l-0.002-0.002z" />
<glyph unicode="&#xe911;" glyph-name="arrow-right-light" d="M981.347 490.668l-254.925 254.925c-11.783 11.783-30.888 11.783-42.671 0s-11.783-30.888 0-42.671v0l224.771-224.771h-865.858c-7.766 0-15.531-2.962-21.456-8.887-11.85-11.85-11.85-31.063 0-42.913 5.925-5.925 13.691-8.887 21.456-8.887l865.858 0.379-224.771-224.771c-11.783-11.783-11.783-30.888 0-42.671s30.888-11.783 42.671 0v0l254.925 254.925c23.536 23.579 23.536 61.762 0.002 85.34l-0.002 0.002z" />
<glyph unicode="&#xe912;" glyph-name="plus" d="M213.333 384h256v-256c0-23.552 19.115-42.667 42.667-42.667s42.667 19.115 42.667 42.667v256h256c23.552 0 42.667 19.115 42.667 42.667s-19.115 42.667-42.667 42.667h-256v256c0 23.552-19.115 42.667-42.667 42.667s-42.667-19.115-42.667-42.667v-256h-256c-23.552 0-42.667-19.115-42.667-42.667s19.115-42.667 42.667-42.667z" />
<glyph unicode="&#xe913;" glyph-name="arrow-bottom" d="M854 426.667l-342-342-342 342 62 60 238-238v520h84v-520l240 238z" />
<glyph unicode="&#xe914;" glyph-name="arrow-top" d="M170 426.667l342 342 342-342-62-60-238 238v-520h-84v520l-240-238z" />
<glyph unicode="&#xe915;" glyph-name="arrow-right" d="M512 768.667l342-342-342-342-60 60 238 240h-520v84h520l-238 240z" />
<glyph unicode="&#xe916;" glyph-name="arrow-left" d="M854 468.667v-84h-520l238-240-60-60-342 342 342 342 60-60-238-240h520z" />
<glyph unicode="&#xe917;" glyph-name="angle-top" d="M316 280.667l-60 60 256 256 256-256-60-60-196 196z" />
<glyph unicode="&#xe918;" glyph-name="angle-right" d="M366 230.667l196 196-196 196 60 60 256-256-256-256z" />
<glyph unicode="&#xe919;" glyph-name="angle-left" d="M658 230.667l-60-60-256 256 256 256 60-60-196-196z" />
<glyph unicode="&#xe91a;" glyph-name="angle-bottom" d="M316 572.667l196-196 196 196 60-60-256-256-256 256z" />
<glyph unicode="&#xe91b;" glyph-name="check" d="M0 409.6l102.4 102.4 256-256 563.2 563.2 102.4-102.4-665.6-665.6z" />
<glyph unicode="&#xe91c;" glyph-name="star-half" horiz-adv-x="951" d="M677.714 404l146.857 142.857-241.143 35.429-17.143 34.286-90.857 184v-550.286l33.714-17.714 181.714-96-34.286 202.857-6.857 37.714zM936 553.714l-207.429-202.286 49.143-285.714c4-25.143-5.143-40-22.857-40-6.286 0-14.286 2.286-22.857 6.857l-256.571 134.857-256.571-134.857c-8.571-4.571-16.571-6.857-22.857-6.857-17.714 0-26.857 14.857-22.857 40l49.143 285.714-208 202.286c-24.571 24.571-16.571 48.571 17.714 53.714l286.857 41.714 128.571 260c7.429 15.429 17.714 23.429 28 23.429v0c10.286 0 20-8 28-23.429l128.571-260 286.857-41.714c34.286-5.143 42.286-29.143 17.143-53.714z" />
<glyph unicode="&#xe91d;" glyph-name="minus" d="M213.333 384h597.333c23.552 0 42.667 19.115 42.667 42.667s-19.115 42.667-42.667 42.667h-597.333c-23.552 0-42.667-19.115-42.667-42.667s19.115-42.667 42.667-42.667z" />
<glyph unicode="&#xe91e;" glyph-name="tool" d="M512.015 972.8c-0.009 0-0.019 0-0.029 0-282.778 0-512.015-229.237-512.015-512.015s229.237-512.015 512.015-512.015c282.778 0 512.015 229.237 512.015 512.015v0c0 282.768-229.22 511.998-511.984 512.015h-0.002zM651.458 768.106c0.143 0 0.312 0.001 0.481 0.001 20.38 0 39.914-3.621 57.995-10.254l-1.168 0.375-101.981-102.010 28.141-72.55 72.55-28.141 101.952 101.952c6.284-16.892 9.921-36.408 9.921-56.773 0-92.457-74.951-167.408-167.408-167.408-20.405 0-39.958 3.651-58.040 10.335l1.159-0.375-289.674-289.762-100.691 100.691 289.762 289.82c-6.28 16.886-9.915 36.394-9.915 56.751 0 92.268 74.658 167.099 166.861 167.378h0.027zM283.811 274.441c-5.361-5.354-8.677-12.754-8.677-20.928 0-16.335 13.242-29.577 29.577-29.577s29.577 13.242 29.577 29.577c0 8.174-3.316 15.574-8.676 20.928v0c-5.468 5.079-12.82 8.195-20.9 8.195s-15.432-3.116-20.92-8.213l0.019 0.018z" />
<glyph unicode="&#xe91f;" glyph-name="cancel" d="M626.784 447.968l195.072-195.072c12.672-12.672 12.672-33.248 0-45.92l-68.832-68.832c-12.672-12.672-33.216-12.672-45.92 0l-195.104 195.072-195.104-195.072c-12.672-12.672-33.216-12.672-45.888 0l-68.864 68.832c-12.672 12.672-12.672 33.216 0 45.92l195.104 195.072-195.104 195.104c-12.672 12.672-12.672 33.248 0 45.92l68.896 68.832c12.672 12.672 33.216 12.672 45.888 0l195.072-195.104 195.104 195.104c12.672 12.672 33.216 12.672 45.92 0l68.832-68.864c12.672-12.672 12.672-33.216 0-45.92l-195.072-195.072z" />
<glyph unicode="&#xe920;" glyph-name="twitter" d="M512-64c-0.443-0.001-0.967-0.002-1.492-0.002-71.428 0-139.373 14.91-200.893 41.786l3.235-1.26c-123.862 51.988-220.398 148.569-271.095 269.167l-1.23 3.298c-25.61 58.714-40.511 127.122-40.511 199.011s14.901 140.297 41.782 202.305l-1.271-3.294c51.959 123.919 148.547 220.506 269.168 271.234l3.297 1.23c58.714 25.61 127.122 40.511 199.011 40.511s140.297-14.901 202.305-41.782l-3.294 1.271c123.944-51.96 220.551-148.566 271.28-269.213l1.23-3.298c25.61-58.714 40.511-127.122 40.511-199.011s-14.901-140.297-41.782-202.305l1.271 3.294c-51.96-123.944-148.566-220.551-269.213-271.28l-3.298-1.23c-58.286-25.617-126.231-40.527-197.658-40.527-0.525 0-1.049 0.001-1.573 0.002h0.082zM813.040 704.023c-7.066-3.803-12.954-7.456-18.611-11.417l0.595 0.395-19.498-13.014-18.526-10.004-20.98-6.993c-21.733 25.167-53.684 41-89.333 41-0.588 0-1.176-0.004-1.762-0.013l0.089 0.001q-116.989 0-116.989-98v-59.004c-0.178 0-0.389-0.001-0.6-0.001-99.338 0-187.98 45.79-245.973 117.415l-0.465 0.594c-15.064-14.41-24.552-34.541-24.962-56.891l-0.001-0.075c-0.111-1.882-0.174-4.083-0.174-6.299 0-38.706 19.301-72.904 48.804-93.494l0.37-0.245q-6.021 0-16.997-0.973c-2.627-0.323-5.669-0.507-8.753-0.507s-6.126 0.184-9.114 0.542l0.361-0.035c-5.446 1.002-10.307 2.74-14.764 5.133l0.268-0.131c-0.051-1.295-0.080-2.814-0.080-4.341 0-27.293 9.247-52.427 24.78-72.438l-0.2 0.268c16.741-20.252 40.13-34.484 66.788-39.355l0.691-0.105c-6.357-7.386-15.717-12.034-26.163-12.034-0.572 0-1.14 0.014-1.705 0.041l0.080-0.003c-0.205-0.003-0.446-0.005-0.688-0.005-10.213 0-19.637 3.376-27.217 9.074l0.117-0.084c-0.001-0.151-0.002-0.329-0.002-0.508 0-26.206 15.104-48.884 37.081-59.803l0.388-0.175c24.317-13.967 53.425-22.29 84.459-22.508h0.064c-12.812-18.448-30.759-32.526-51.769-40.282l-0.751-0.243c-21.36-8.534-46.117-13.483-72.030-13.483-0.517 0-1.033 0.002-1.549 0.006h0.079c-13.996 0.704-27.155 3.211-39.597 7.296l1.064-0.302q-24.5 6.993-25.473 6.993c15.123-25.003 37.69-44.19 64.599-54.715l0.889-0.306c34.113-14.746 73.834-23.323 115.558-23.323 3.5 0 6.986 0.060 10.456 0.18l-0.504-0.014c0.825-0.007 1.799-0.012 2.775-0.012 44.041 0 86.066 8.629 124.478 24.288l-2.205-0.795c38.206 15.341 70.957 36.525 98.851 62.808l-0.156-0.146c26.955 25.85 50.285 55.164 69.355 87.304l1.042 1.897c18.075 29.778 33.101 64.172 43.298 100.583l0.7 2.929c9.042 31.589 14.324 67.894 14.496 105.405v0.098q0 1.991 11.995 8.522c10.958 6.17 20.033 11.962 28.785 18.179l-0.996-0.672c9.489 6.25 17.456 13.952 23.807 22.884l0.184 0.273q-54.002 0-71.972-1.991c26.575 19.252 45.639 47.455 52.819 80.113l0.164 0.89z" />
<glyph unicode="&#xe921;" glyph-name="facebook1" horiz-adv-x="1030" d="M1030.244 444.855c-0.024 284.463-230.632 515.057-515.099 515.057-284.481 0-515.099-230.618-515.099-515.099 0-256.054 186.83-468.471 431.606-508.367l2.971-0.399v359.926h-130.755v149.115h130.755v113.281c0 129.124 76.934 200.373 194.548 200.373 41.189-0.593 81.051-4.231 119.956-10.7l-4.625 0.635v-126.748h-64.912c-2.884 0.395-6.217 0.621-9.603 0.621-41.177 0-74.557-33.381-74.557-74.557 0-2.286 0.103-4.547 0.304-6.78l-0.021 0.288v-96.692h142.871l-22.833-149.115h-120.084v-359.926c247.767 40.335 434.604 252.773 434.623 508.852v0.002z" />
<glyph unicode="&#xe922;" glyph-name="linkedin" d="M0 960v-1024h1024.046v1024zM251.16 758.674c0.654 0.019 1.424 0.030 2.197 0.030 43.13 0 78.306-34.059 80.098-76.749l0.005-0.162c-1.466-42.818-36.529-76.972-79.57-76.972-1.335 0-2.662 0.033-3.981 0.098l0.186-0.007h-1.158c-0.376-0.006-0.82-0.010-1.264-0.010-43.086 0-78.215 34.068-79.919 76.736l-0.005 0.155c2.059 42.914 37.353 76.929 80.592 76.929 0.975 0 1.946-0.017 2.913-0.052l-0.14 0.004zM686.511 555.17c1.322 0.038 2.878 0.060 4.439 0.060 45.699 0 87.035-18.676 116.794-48.811l0.017-0.017c30.531-38.639 48.974-88.056 48.974-141.781 0-3.416-0.075-6.814-0.222-10.193l0.017 0.482v-255.514h-147.278v238.146c-0.324 44.647-15.608 98.88-74.704 100.686-34.559-1.176-63.724-23.051-75.574-53.568l-0.196-0.573c-3.477-9.553-5.487-20.582-5.487-32.079 0-1.276 0.025-2.546 0.074-3.811l-0.006 0.182v-249.030h-147.417c0.556 124.492 1.343 248.937 1.065 373.475q0 53.029-1.065 71.416h147.186v-62.755c12.477 18.716 27.364 34.634 44.462 47.824l0.462 0.343c23.712 15.957 52.915 25.47 84.34 25.47 1.286 0 2.568-0.016 3.846-0.048l-0.189 0.004zM176.456 544.287h147.186v-444.891h-147.186v444.891z" />
<glyph unicode="&#xe923;" glyph-name="code" horiz-adv-x="1097" d="M352.571 151.428l-28.571-28.571c-7.429-7.429-18.857-7.429-26.286 0l-266.286 266.286c-7.429 7.429-7.429 18.857 0 26.286l266.286 266.286c7.429 7.429 18.857 7.429 26.286 0l28.571-28.571c7.429-7.429 7.429-18.857 0-26.286l-224.571-224.571 224.571-224.571c7.429-7.429 7.429-18.857 0-26.286zM690.286 761.143l-213.143-737.714c-2.857-9.714-13.143-15.429-22.286-12.571l-35.429 9.714c-9.714 2.857-15.429 13.143-12.571 22.857l213.143 737.714c2.857 9.714 13.143 15.429 22.286 12.571l35.429-9.714c9.714-2.857 15.429-13.143 12.571-22.857zM1065.714 389.143l-266.286-266.286c-7.429-7.429-18.857-7.429-26.286 0l-28.571 28.571c-7.429 7.429-7.429 18.857 0 26.286l224.571 224.571-224.571 224.571c-7.429 7.429-7.429 18.857 0 26.286l28.571 28.571c7.429 7.429 18.857 7.429 26.286 0l266.286-266.286c7.429-7.429 7.429-18.857 0-26.286z" />
<glyph unicode="&#xe924;" glyph-name="search" d="M660.48 239.616c-68.622-53.712-156.164-86.131-251.277-86.131-226.216 0-409.6 183.384-409.6 409.6s183.384 409.6 409.6 409.6c226.216 0 409.6-183.384 409.6-409.6 0-95.113-32.419-182.654-86.809-252.177l0.678 0.9 273.92-272.896-72.704-72.704-272.896 273.408zM409.6 256c169.662 0 307.2 137.538 307.2 307.2s-137.538 307.2-307.2 307.2v0c-169.662 0-307.2-137.538-307.2-307.2s137.538-307.2 307.2-307.2v0z" />
<glyph unicode="&#xe925;" glyph-name="map" horiz-adv-x="867" d="M434.254 925.68c-1.686 0.027-3.675 0.043-5.668 0.043-203.344 0-368.645-162.882-372.548-365.292l-0.006-0.365c-0.001-0.336-0.002-0.734-0.002-1.132 0-82.463 28.502-158.269 76.192-218.105l-0.546 0.709 288.569-374.019c4.137-4.848 10.253-7.902 17.082-7.902 4.593 0 8.863 1.381 12.417 3.751l-0.082-0.051 4.202 4.202 285.767 374.019c45.459 59.062 72.856 134.076 72.856 215.489 0 1.069-0.005 2.136-0.014 3.203l0.001-0.163c-3.909 202.775-169.209 365.657-372.553 365.657-1.993 0-3.982-0.016-5.968-0.047l0.3 0.004zM404.837 417.182c-67.545 13.896-117.616 72.866-117.616 143.531 0 80.847 65.539 146.386 146.386 146.386 70.665 0 129.635-50.071 143.368-116.669l0.163-0.947c1.571-8.109 2.47-17.434 2.47-26.97 0-71.225-50.147-130.737-117.061-145.155l-0.977-0.176c-8.524-1.998-18.312-3.143-28.367-3.143s-19.843 1.145-29.239 3.313l0.873-0.169z" />
<glyph unicode="&#xe926;" glyph-name="account" d="M85.333-64c-0.527-0.012-1.148-0.019-1.77-0.019-46.161 0-83.582 37.421-83.582 83.582 0 0.622 0.007 1.243 0.020 1.863l-0.002-0.092c0 85.333 85.333 341.333 512 341.333s512-256 512-341.333c0.012-0.527 0.019-1.148 0.019-1.77 0-46.161-37.421-83.582-83.582-83.582-0.622 0-1.243 0.007-1.863 0.020l0.092-0.002zM512 448c141.385 0 256 114.615 256 256s-114.615 256-256 256c-141.385 0-256-114.615-256-256v0c0-141.385 114.615-256 256-256v0z" />
<glyph unicode="&#xe927;" glyph-name="contact" horiz-adv-x="1027" d="M847.806 926.316h-663.838c-81.333-0.583-147.109-66.36-147.692-147.637v-440.542c0.295-81.345 66.305-147.174 147.691-147.174 0 0 0.001 0 0.001 0v0-184.486c0-20.321 16.473-36.794 36.794-36.794v0c1.233-0.151 2.66-0.237 4.107-0.237 7.349 0 14.18 2.217 19.861 6.019l-0.13-0.082 248.227 212.47h354.98c0.010 0 0.021 0 0.033 0 81.282 0 147.174 65.892 147.174 147.174 0 1.093-0.012 2.184-0.036 3.272l0.003-0.162v440.486c0 0 0 0.001 0 0.001 0 81.386-65.829 147.397-147.146 147.691h-0.028zM588.696 483.757h-293.83c-0.464-0.021-1.008-0.033-1.555-0.033-20.339 0-36.826 16.488-36.826 36.826 0 19.792 15.613 35.937 35.195 36.791l0.077 0.003h297.976c20.321 0 36.794-16.473 36.794-36.794s-16.473-36.794-36.794-36.794v0zM735.87 630.931h-441.004c-19.481 1.373-34.765 17.514-34.765 37.225 0 18.61 13.625 34.038 31.444 36.853l0.211 0.028h445.15c18.631-2.271 32.922-17.993 32.922-37.053s-14.291-34.782-32.742-37.035l-0.18-0.018z" />
<glyph unicode="&#xe928;" glyph-name="cart" d="M298.667 192c-47.128 0-85.333-38.205-85.333-85.333s38.205-85.333 85.333-85.333c47.128 0 85.333 38.205 85.333 85.333v0c0 47.128-38.205 85.333-85.333 85.333v0zM42.667 874.667v-85.333h85.333l153.563-323.784-57.581-104.515c-6.698-11.66-10.649-25.636-10.649-40.535 0-0.097 0-0.194 0.001-0.291v0.015c0.126-47.077 38.256-85.207 85.321-85.333h512.012v85.333h-494.117c-0.022 0-0.048 0-0.074 0-5.84 0-10.574 4.734-10.574 10.574 0 0.026 0 0.052 0 0.078v-0.004l1.261 5.12 38.4 69.528h317.811c0.081 0 0.177 0 0.274 0 31.86 0 59.623 17.545 74.154 43.499l0.221 0.429 152.747 276.814c3.292 5.826 5.232 12.793 5.232 20.214 0 0.068 0 0.135 0 0.203v-0.010c-0.063 23.539-19.128 42.604-42.661 42.667h-631.065l-40.107 85.333zM725.333 192c-47.128 0-85.333-38.205-85.333-85.333s38.205-85.333 85.333-85.333c47.128 0 85.333 38.205 85.333 85.333v0c0 47.128-38.205 85.333-85.333 85.333v0z" />
<glyph unicode="&#xe929;" glyph-name="star-empty" horiz-adv-x="951" d="M649.714 377.143l174.857 169.714-241.143 35.429-108 218.286-108-218.286-241.143-35.429 174.857-169.714-41.714-240.571 216 113.714 215.429-113.714zM950.857 581.143c0-10.286-7.429-20-14.857-27.429l-207.429-202.286 49.143-285.714c0.571-4 0.571-7.429 0.571-11.429 0-15.429-6.857-28.571-23.429-28.571-8 0-16 2.857-22.857 6.857l-256.571 134.857-256.571-134.857c-7.429-4-14.857-6.857-22.857-6.857-16.571 0-24 13.714-24 28.571 0 4 0.571 7.429 1.143 11.429l49.143 285.714-208 202.286c-6.857 7.429-14.286 17.143-14.286 27.429 0 17.143 17.714 24 32 26.286l286.857 41.714 128.571 260c5.143 10.857 14.857 23.429 28 23.429s22.857-12.571 28-23.429l128.571-260 286.857-41.714c13.714-2.286 32-9.143 32-26.286z" />
<glyph unicode="&#xe92a;" glyph-name="star" horiz-adv-x="951" d="M950.857 581.143c0-10.286-7.429-20-14.857-27.429l-207.429-202.286 49.143-285.714c0.571-4 0.571-7.429 0.571-11.429 0-14.857-6.857-28.571-23.429-28.571-8 0-16 2.857-22.857 6.857l-256.571 134.857-256.571-134.857c-7.429-4-14.857-6.857-22.857-6.857-16.571 0-24 13.714-24 28.571 0 4 0.571 7.429 1.143 11.429l49.143 285.714-208 202.286c-6.857 7.429-14.286 17.143-14.286 27.429 0 17.143 17.714 24 32 26.286l286.857 41.714 128.571 260c5.143 10.857 14.857 23.429 28 23.429s22.857-12.571 28-23.429l128.571-260 286.857-41.714c13.714-2.286 32-9.143 32-26.286z" />
<glyph unicode="&#xe92b;" glyph-name="heart" horiz-adv-x="1118" d="M1096.153 773.712c13.219-41.934 20.836-90.157 20.836-140.16 0-112.342-38.447-215.704-102.902-297.647l0.784 1.034c-59.928-80.147-126.322-150.135-200.001-211.694l-1.958-1.591c-66.441-61.852-215.14-184.238-254.535-187.606-39.38 16.389-73.082 38.787-101.681 66.431l0.091-0.088c-155.436 118.090-322.685 261.76-407.53 418.856-71.127 150.7-71.225 337.233 39.445 452.882 57.842 52.651 135.072 84.892 219.832 84.892 99.966 0 189.458-44.847 249.454-115.519l0.389-0.47c28.984 37.531 65.306 67.923 106.981 89.38l1.785 0.835c39.131 17.87 84.877 28.287 133.057 28.287 130.064 0 242.397-75.917 295.104-185.856l0.85-1.967z" />
<glyph unicode="&#xe92c;" glyph-name="clock" d="M981.333 426.667c0 129.579-52.565 246.997-137.472 331.861s-202.283 137.472-331.861 137.472-246.997-52.565-331.861-137.472-137.472-202.283-137.472-331.861 52.565-246.997 137.472-331.861 202.283-137.472 331.861-137.472 246.997 52.565 331.861 137.472 137.472 202.283 137.472 331.861zM896 426.667c0-106.069-42.923-201.984-112.469-271.531s-165.461-112.469-271.531-112.469-201.984 42.923-271.531 112.469-112.469 165.461-112.469 271.531 42.923 201.984 112.469 271.531 165.461 112.469 271.531 112.469 201.984-42.923 271.531-112.469 112.469-165.461 112.469-271.531zM469.333 682.667v-256c0-16.597 9.472-31.019 23.595-38.144l170.667-85.333c21.077-10.539 46.72-2.005 57.259 19.072s2.005 46.72-19.072 57.259l-147.115 73.515v229.632c0 23.552-19.115 42.667-42.667 42.667s-42.667-19.115-42.667-42.667z" />
<glyph unicode="&#xe92d;" glyph-name="file" d="M917.806 730.924c-22.212 30.292-53.174 65.7-87.178 99.704s-69.412 64.964-99.704 87.178c-51.574 37.82-76.592 42.194-90.924 42.194h-496c-44.112 0-80-35.888-80-80v-864c0-44.112 35.888-80 80-80h736c44.112 0 80 35.888 80 80v624c0 14.332-4.372 39.35-42.194 90.924zM785.374 785.374c30.7-30.7 54.8-58.398 72.58-81.374h-153.954v153.946c22.984-17.78 50.678-41.878 81.374-72.572zM896 16c0-8.672-7.328-16-16-16h-736c-8.672 0-16 7.328-16 16v864c0 8.672 7.328 16 16 16 0 0 495.956 0.002 496 0v-224c0-17.672 14.326-32 32-32h224v-624zM736 128h-448c-17.672 0-32 14.326-32 32s14.328 32 32 32h448c17.674 0 32-14.326 32-32s-14.326-32-32-32zM736 256h-448c-17.672 0-32 14.326-32 32s14.328 32 32 32h448c17.674 0 32-14.326 32-32s-14.326-32-32-32zM736 384h-448c-17.672 0-32 14.326-32 32s14.328 32 32 32h448c17.674 0 32-14.326 32-32s-14.326-32-32-32z" />
<glyph unicode="&#xe92e;" glyph-name="envelope" horiz-adv-x="1521" d="M1520.577 629.818v-577.199c-0.007-33.225-15.489-62.832-39.63-82.008l-0.215-0.165c-24.782-21.278-57.25-34.232-92.743-34.232-1.106 0-2.21 0.013-3.31 0.038l0.164-0.003h-1249.107c-0.937-0.022-2.040-0.035-3.146-0.035-35.493 0-67.961 12.954-92.934 34.392l0.191-0.16c-24.286 19.296-39.747 48.795-39.845 81.909v577.463c25.068-23.755 53.178-44.728 83.57-62.173l2.141-1.132q307.157-178.87 421.727-250.926 48.348-30.536 78.449-47.665c22.515-12.463 49.002-24.249 76.541-33.782l3.646-1.098c27.584-10.692 59.489-17.171 92.825-17.808l0.272-0.004h1.676c33.607 0.642 65.513 7.12 95.008 18.458l-1.911-0.646c31.186 10.631 57.673 22.418 82.888 36.236l-2.701-1.356q30.101 17.068 78.573 47.665 144.238 89.435 422.534 250.926c32.347 18.737 60.319 39.694 85.56 63.513l-0.222-0.208zM1520.577 843.629c-0.798-42.080-16.393-80.37-41.781-110.029l0.198 0.237c-28.773-35.608-63.048-65.394-101.783-88.474l-1.74-0.96q-319.073-189.793-397.212-236.341-8.503-5.089-36.059-22.219t-45.804-27.619q-18.247-10.551-44.128-23.647c-13.806-7.334-29.975-14-46.823-19.102l-1.96-0.51c-12.634-3.932-27.184-6.318-42.252-6.577l-0.138-0.002h-1.676c-15.2 0.239-29.752 2.627-43.489 6.871l1.099-0.292c-18.825 5.643-34.992 12.308-50.324 20.349l1.541-0.736q-25.881 13.096-44.128 23.647t-45.804 27.619l-36.059 22.219q-77.208 46.548-222.315 132.694t-173.78 103.647c-38.407 23.154-71.177 51.044-98.845 83.424l-0.458 0.549c-26.165 25.554-43.441 60.108-46.817 98.647l-0.042 0.594c-0.042 1.245-0.065 2.708-0.065 4.177 0 34.929 13.426 66.721 35.4 90.499l-0.082-0.090c23.576 23.524 56.117 38.070 92.056 38.070 2.965 0 5.906-0.099 8.821-0.294l-0.396 0.021h1249.045c0.81 0.017 1.765 0.026 2.722 0.026 35.489 0 67.953-12.951 92.924-34.383l-0.191 0.16c24.588-19.222 40.266-48.859 40.342-82.161v-0.012z" />
<glyph unicode="&#xe92f;" glyph-name="download" horiz-adv-x="805" d="M676.562 667.446h-237.731v-350.537l120.445 120.415c6.531 6.165 15.363 9.955 25.080 9.955 20.197 0 36.569-16.373 36.569-36.569 0-9.717-3.79-18.548-9.971-25.097l0.017 0.018-182.846-182.969c-6.617-6.611-15.754-10.699-25.847-10.699s-19.23 4.089-25.847 10.7v0l-182.846 182.846c-6.165 6.531-9.955 15.363-9.955 25.080 0 20.197 16.373 36.569 36.569 36.569 9.717 0 18.548-3.79 25.097-9.971l-0.018 0.017 120.445-120.415v350.66h-237.639c-70.677-0.070-127.953-57.346-128.023-128.016v-475.53c0.14-70.624 57.389-127.831 128.016-127.9h548.545c70.677 0.070 127.953 57.346 128.023 128.016v475.53c-0.14 70.646-57.424 127.865-128.081 127.9h-0.004zM438.831 923.431c0 20.197-16.373 36.569-36.569 36.569s-36.569-16.373-36.569-36.569v0-255.985h73.138z" />
<glyph unicode="&#xe930;" glyph-name="phone" d="M1021.767 166.63q-4.342 13.088-55.269 38.521-13.771 8.002-39.265 21.835t-46.151 25.433q-20.78 11.662-38.893 22.517-2.915 2.171-18.175 12.716c-7.4 5.337-15.845 10.527-24.664 15.095l-1.14 0.537c-6.031 3.103-13.143 4.97-20.681 5.086h-0.038c-14.683-2.493-27.288-9.984-36.276-20.628l-0.074-0.090c-14.396-13.698-27.517-28.432-39.355-44.185l-0.655-0.911c-12.438-16.644-25.063-31.354-38.595-45.172l0.074 0.076c-8.111-10.519-19.73-17.986-33.080-20.659l-0.354-0.059c-5.967 0.285-11.555 1.581-16.705 3.719l0.329-0.121c-6.513 2.419-11.538 4.528-14.949 6.203s-9.181 5.087-17.431 10.173-12.84 7.878-13.833 8.374c-65.262 35.852-121.44 77.893-170.997 126.643l0.103-0.101c-48.653 49.451-90.695 105.63-124.55 166.959l-1.992 3.935q-0.744 1.427-8.374 13.833t-10.235 17.493c-1.916 3.844-4.009 8.758-5.853 13.793l-0.351 1.095c-2.045 4.817-3.362 10.404-3.655 16.26l-0.005 0.116c2.727 13.707 10.195 25.327 20.589 33.339l0.129 0.096c13.743 13.46 28.453 26.085 43.959 37.705l1.137 0.816c16.665 12.492 31.398 25.613 44.957 39.862l0.139 0.148c10.734 9.062 18.225 21.667 20.668 35.993l0.050 0.357c-0.112 7.575-1.979 14.688-5.211 20.986l0.125-0.267c-5.090 9.953-10.281 18.399-16.043 26.405l0.411-0.601q-10.545 15.26-12.716 18.175-10.731 18.237-22.517 39.203t-25.433 45.965q-13.833 25.433-21.835 39.265-25.433 50.865-38.521 55.269c-3.957 1.409-8.521 2.223-13.275 2.223-0.72 0-1.436-0.019-2.147-0.056l0.1 0.004c-18.497-0.612-36.094-3.223-52.966-7.627l1.666 0.369c-19.062-4.072-35.654-9.328-51.525-15.964l1.901 0.705c-34.124-21.082-60.749-51.421-76.736-87.521l-0.492-1.244c-22.64-38.866-36.345-85.386-37.215-135.037l-0.003-0.252c0-0.147 0-0.321 0-0.496 0-13.301 0.925-26.386 2.713-39.194l-0.169 1.478c2.513-16.193 5.776-30.28 9.949-43.969l-0.583 2.223q6.513-23.261 10.545-34.551t14.887-40.382q10.917-29.092 13.088-35.606c17.167-48.849 37.501-90.915 61.857-130.228l-1.625 2.817c46.733-72.543 98.421-135.546 156.453-192.066l0.236-0.229c56.752-58.291 119.754-109.997 188.071-154.191l4.224-2.56c36.461-22.756 78.481-43.128 122.679-58.919l4.607-1.436q6.575-2.171 35.606-13.088t40.382-14.887q11.29-4.032 34.551-10.545c11.49-3.515 25.61-6.695 40.051-8.898l1.757-0.221c11.154-1.634 24.030-2.567 37.125-2.567 50.345 0 97.469 13.791 137.8 37.801l-1.239-0.683c37.311 16.45 67.627 43.033 88.223 76.271l0.481 0.833c5.942 13.978 11.199 30.571 14.917 47.737l0.343 1.887c4.034 15.187 6.645 32.762 7.247 50.845l0.010 0.392c0.033 0.608 0.051 1.319 0.051 2.035 0 4.875-0.86 9.549-2.436 13.878l0.090-0.282z" />
<glyph unicode="&#xe931;" glyph-name="smartphone" horiz-adv-x="675" d="M594.581 870.813v0c-15.282 15.726-36.633 25.484-60.264 25.484-0.214 0-0.429-0.001-0.643-0.002h-400.601c-47.383-0.531-85.621-38.934-85.884-86.331v-737.116c0.266-47.586 38.77-86.090 86.33-86.356h400.659c47.586 0.266 86.090 38.77 86.356 86.33v737.116c-0.071 23.896-9.999 45.46-25.929 60.85l-0.024 0.024zM333.626 45.006v0c-13.031 0-23.594 10.564-23.594 23.594s10.564 23.594 23.594 23.594v0c13.031 0 23.594-10.564 23.594-23.594s-10.564-23.594-23.594-23.594v0zM551.639 191.292c0-0.001 0-0.001 0-0.002 0-31.013-25.141-56.155-56.155-56.155-0.166 0-0.332 0.001-0.497 0.002h-323.219c-31.004 0.26-56.1 25.19-56.626 56.105l-0.001 0.050v549.279c0 31.274 25.353 56.627 56.627 56.627v0h323.244c31.274 0 56.627-25.353 56.627-56.627v0 0z" />
<glyph unicode="&#xe932;" glyph-name="menu" d="M0 819.2h1024v-102.4h-1024v102.4zM0 512h1024v-102.4h-1024v102.4zM0 204.8h1024v-102.4h-1024v102.4z" />
<glyph unicode="&#xe933;" glyph-name="close-light" d="M512 533.197l-362.035 362.035-72.397-72.397 362.035-362.035-362.035-362.035 72.397-72.397 362.035 362.035 362.035-362.035 72.397 72.397-362.035 362.035 362.035 362.035-72.397 72.397-362.035-362.035z" />
</font>
</defs>
</svg>
